<svg version="1" xmlns="http://www.w3.org/2000/svg" width="1541.333" height="1541.333" viewBox="0 0 1156.000000 1156.000000"><path d="M558.8 98c-1.3 2-2.4 2-236.4 2H87.2l-.7 98.2c-.4 54.1-.5 100.8-.3 103.8l.3 5.5 26.5 16.4c14.6 9 42 25.9 61 37.6 117.4 72.4 177.5 109.7 177.8 110.3.2.8-130.7 73.7-131.1 73.1-.2-.2 0-17.7.4-38.9 1-54.7 1-80 .1-80-.5 0-33-15.5-72.2-34.5-39.3-18.9-71.5-34.3-71.8-34.1-.5.6 1.8 358.5 2.6 396.3l.7 31.3 48.5-27.5c26.7-15 133.3-75.3 237-133.9l188.5-106.4V416.9L474 371.6c-44.3-24.9-118.3-66.5-164.5-92.5l-84-47.3 43.9.6c24.2.3 68.3.6 98.2.6h54.2l.6 13.2c.3 7.3.9 23.2 1.3 35.2l.8 21.9 66.4 42.4c36.5 23.3 66.5 42.2 66.6 42.1.1-.2.9-59.5 1.8-131.8 1-72.3 1.9-137.9 2.2-145.8.5-14.2 0-16.5-2.7-12.2zM578.5 110.2c.3 7.9 1.2 73.5 2.2 145.8.9 72.3 1.7 131.6 1.8 131.8.1.1 30.1-18.8 66.6-42.1l66.4-42.4.8-21.9c.4-12 1-27.9 1.3-35.2l.6-13.2h54.2c29.9 0 74-.3 98.2-.6l43.9-.6-84 47.3c-46.2 26-120.2 67.6-164.5 92.5l-80.5 45.3V517.2L774 623.7c103.7 58.5 210.3 118.8 237 133.8l48.5 27.5.7-31.3c.8-37.8 3.1-395.7 2.6-396.3-.3-.2-32.5 15.2-71.8 34.1-39.2 19-71.7 34.5-72.2 34.5-.9 0-.9 25.3.1 80 .4 21.2.6 38.7.4 38.9-.4.6-131.3-72.3-131.1-73.1.3-.6 60.4-37.9 177.8-110.3 19-11.7 46.4-28.6 61-37.6l26.5-16.4.3-5.5c.2-3 .1-49.7-.3-103.8l-.7-98.2H817.6c-234 0-235.1 0-236.4-2-2.7-4.3-3.2-2-2.7 12.2zM325.3 685.8C189.3 765.9 78.1 831.7 78.1 832c0 .5 498.6 291 499.4 291 .1 0 108.4-64.1 240.6-142.5 150.1-89 240.4-143.1 240.3-144-.1-.8 1.6-2.6 3.7-4.1 2.2-1.5 3.9-3 3.9-3.4 0-.4-9.6-6.4-21.2-13.2-11.7-6.9-30.1-17.7-40.8-24-10.7-6.3-49.6-29.2-86.5-50.8-71.8-42.1-77-45.2-100-60-8.2-5.3-25.9-16.7-39.3-25.4-13.7-8.8-24.9-15.3-25.5-15-1 .6-69.3 43.4-164.2 102.8C482.7 809.7 447 832.3 447 833c0 .4 5.1 3.7 11.3 7.2 6.1 3.5 34.6 19.8 63.2 36.2 39.4 22.6 52.3 29.6 53.5 28.8.8-.5 37.5-23.9 81.5-51.9s81.8-52.1 84.1-53.5l4.1-2.6 23.4 19.9c12.9 11 23.5 20.3 23.6 20.7.2.5-141.4 86.2-204.3 123.7l-4.1 2.4-25.1-16.8c-13.8-9.2-60.2-40.1-103.1-68.6-43-28.5-78.1-52.1-78.1-52.5 0-.4 36.8-24.3 81.7-53.1 44.9-28.8 104.2-66.9 131.7-84.6 27.6-17.7 63.3-40.6 79.4-51 16-10.3 29.2-19 29.2-19.3 0-.3-10.2-6.9-22.7-14.7-12.6-7.7-40.3-25-61.8-38.3-21.4-13.4-39.7-24.5-40.5-24.6-.8-.2-112.7 65.2-248.7 145.4z"/></svg>